{
  "accessors": [
    {
      "bufferView": 2,
      "componentType": 5126,
      "count": 12796,
      "max": [
        1.9432287216186523,
        1.9432286024093628,
        0.9972826242446899
      ],
      "min": [
        -1.9432286024093628,
        -1.9432286024093628,
        -0.03000004217028618
      ],
      "type": "VEC3"
    },
    {
      "bufferView": 2,
      "byteOffset": 153552,
      "componentType": 5126,
      "count": 12796,
      "max": [
        0.9941958785057068,
        0.9941959381103516,
        1.0
      ],
      "min": [
        -0.9941960573196411,
        -0.9941959381103516,
        -1.0
      ],
      "type": "VEC3"
    },
    {
      "bufferView": 1,
      "componentType": 5126,
      "count": 12796,
      "max": [
        1.000000238418579,
        1.0000001192092896
      ],
      "min": [
        0.0,
        0.4999999403953552
      ],
      "type": "VEC2"
    },
    {
      "bufferView": 0,
      "componentType": 5125,
      "count": 69216,
      "type": "SCALAR"
    },
    {
      "bufferView": 2,
      "byteOffset": 307104,
      "componentType": 5126,
      "count": 6578,
      "max": [
        1.0613718032836914,
        1.0613718032836914,
        0.03821364417672157
      ],
      "min": [
        -1.0613718032836914,
        -1.0613718032836914,
        -0.03821364417672157
      ],
      "type": "VEC3"
    },
    {
      "bufferView": 2,
      "byteOffset": 386040,
      "componentType": 5126,
      "count": 6578,
      "max": [
        1.0,
        1.0,
        0.9999995231628418
      ],
      "min": [
        -1.0,
        -1.0,
        -0.9999995231628418
      ],
      "type": "VEC3"
    },
    {
      "bufferView": 1,
      "byteOffset": 102368,
      "componentType": 5126,
      "count": 6578,
      "max": [
        1.0000001192092896,
        1.0000001192092896
      ],
      "min": [
        0.0,
        2.220446049250313e-16
      ],
      "type": "VEC2"
    },
    {
      "bufferView": 0,
      "byteOffset": 276864,
      "componentType": 5125,
      "count": 36864,
      "type": "SCALAR"
    }
  ],
  "asset": {
    "extras": {
      "author": "WalidEH (https://sketchfab.com/WalidEH)",
      "license": "CC-BY-4.0 (http://creativecommons.org/licenses/by/4.0/)",
      "source": "https://sketchfab.com/3d-models/luffys-hat-straw-hat-b809899671d043d3bbe76d0505ab1d88",
      "title": "Luffy's Hat (Straw Hat)"
    },
    "generator": "Sketchfab-13.4.0",
    "version": "2.0"
  },
  "bufferViews": [
    {
      "buffer": 0,
      "byteLength": 424320,
      "name": "floatBufferViews",
      "target": 34963
    },
    {
      "buffer": 0,
      "byteLength": 154992,
      "byteOffset": 424320,
      "byteStride": 8,
      "name": "floatBufferViews",
      "target": 34962
    },
    {
      "buffer": 0,
      "byteLength": 464976,
      "byteOffset": 579312,
      "byteStride": 12,
      "name": "floatBufferViews",
      "target": 34962
    }
  ],
  "buffers": [
    {
      "byteLength": 1044288,
      "uri": "scene.bin"
    }
  ],
  "materials": [
    {
      "doubleSided": true,
      "name": "Material.002",
      "pbrMetallicRoughness": {
        "baseColorFactor": [
          0.533276,
          0.287441,
          0.0466652,
          1.0
        ],
        "metallicFactor": 0.0,
        "roughnessFactor": 0.9279267196965102
      }
    },
    {
      "doubleSided": true,
      "name": "Material.001",
      "pbrMetallicRoughness": {
        "baseColorFactor": [
          0.8,
          0.0508625,
          0.0342917,
          1.0
        ],
        "metallicFactor": 0.0,
        "roughnessFactor": 0.953281223370138
      }
    }
  ],
  "meshes": [
    {
      "name": "Straw Hat_Material.002_0",
      "primitives": [
        {
          "attributes": {
            "NORMAL": 1,
            "POSITION": 0,
            "TEXCOORD_0": 2
          },
          "indices": 3,
          "material": 0,
          "mode": 4
        }
      ]
    },
    {
      "name": "red thing_Material.001_0",
      "primitives": [
        {
          "attributes": {
            "NORMAL": 5,
            "POSITION": 4,
            "TEXCOORD_0": 6
          },
          "indices": 7,
          "material": 1,
          "mode": 4
        }
      ]
    }
  ],
  "nodes": [
    {
      "children": [
        1
      ],
      "matrix": [
        1.0,
        0.0,
        0.0,
        0.0,
        0.0,
        2.220446049250313e-16,
        -1.0,
        0.0,
        0.0,
        1.0,
        2.220446049250313e-16,
        0.0,
        0.0,
        0.0,
        0.0,
        1.0
      ],
      "name": "Sketchfab_model"
    },
    {
      "children": [
        2
      ],
      "matrix": [
        0.009999999776482582,
        0.0,
        0.0,
        0.0,
        0.0,
        0.0,
        0.009999999776482582,
        0.0,
        0.0,
        -0.009999999776482582,
        0.0,
        0.0,
        0.0,
        0.0,
        0.0,
        1.0
      ],
      "name": "47bc1d6310354a2db6f3c7c95d438153.fbx"
    },
    {
      "children": [
        3
      ],
      "name": "RootNode"
    },
    {
      "children": [
        4,
        5
      ],
      "matrix": [
        100.0,
        0.0,
        0.0,
        0.0,
        0.0,
        -1.629206793918314e-05,
        -99.99999999999868,
        0.0,
        0.0,
        99.99999999999868,
        -1.629206793918314e-05,
        0.0,
        0.0,
        0.0,
        0.0,
        1.0
      ],
      "name": "Straw Hat"
    },
    {
      "mesh": 0,
      "name": "Straw Hat_Material.002_0"
    },
    {
      "children": [
        6
      ],
      "matrix": [
        1.0,
        0.0,
        0.0,
        0.0,
        0.0,
        1.0,
        -2.646977960169688e-23,
        0.0,
        0.0,
        4.658854102965526e-23,
        1.7600653171539307,
        0.0,
        -0.003166436217725277,
        -3.828947825468276e-09,
        0.06332872807979584,
        1.0
      ],
      "name": "red thing"
    },
    {
      "mesh": 1,
      "name": "red thing_Material.001_0"
    }
  ],
  "scene": 0,
  "scenes": [
    {
      "name": "Sketchfab_Scene",
      "nodes": [
        0
      ]
    }
  ]
}
